<?xml version="1.0" encoding="UTF-8"?>
<svg id="Layer_1" data-name="Layer 1" xmlns="http://www.w3.org/2000/svg" viewBox="0 0 18.79 22">
  <defs>
    <style>
      .cls-1 {
        fill: #fff;
      }
    </style>
  </defs>
  <path class="cls-1" d="m17.83,0C12.57.6,3.63.3,0,.18v1.25c2.4.45,2.95.37,3,1.77.17,3.82.09,12.26,0,15.81-.02,1.34-.76,1.29-3,1.73v1.25c7.3-.23,12.31-.21,18.1,0,.07-.92.52-4.62.7-6h-1.23c-1.39,3.29-1.66,4.42-4.64,4.42h-4.38c-1.47,0-2.17-.6-2.17-1.88v-6.82c3.27,0,4.32.1,4.32.1,1.5.02,1.73,1.22,2.18,3.19h1c-.11-4.83-.22-3.02,0-8h-1c-.65,2.79-.69,3.12-2.15,3.16,0,0-1.5.15-4.35.12V2.25c0-.31.02-.48.53-.48h6.73c1.71,0,2.12,2.19,2.64,4.23h1.21c.04-.89.22-4.37.37-6Z"/>
</svg>